<?xml version="1.0" encoding="UTF-8"?>
<svg width="107px" height="107px" viewBox="0 0 107 107" version="1.1" xmlns="http://www.w3.org/2000/svg" xmlns:xlink="http://www.w3.org/1999/xlink">
    <!-- Generator: Sketch 43.2 (39069) - http://www.bohemiancoding.com/sketch -->
    <title>Bonhomme</title>
    <desc>Created with Sketch.</desc>
    <defs></defs>
    <g id="Symbols" stroke="none" stroke-width="1" fill="none" fill-rule="evenodd">
        <g id="Bonhomme" stroke="#000000">
            <g id="Group-2">
                <path d="M0.5,9.99420077 C0.5,4.75204051 4.75315772,0.5 9.99420077,0.5 L97.0057992,0.5 C102.247959,0.5 106.5,4.75315772 106.5,9.99420077 L106.5,89.0001067 C106.5,98.6631145 98.661466,106.5 89.0001067,106.5 L17.9998933,106.5 C8.33688548,106.5 0.5,98.661466 0.5,89.0001067 L0.5,9.99420077 Z" id="Rectangle"></path>
                <path d="M39.5,54.5 L39.5,46.2537887" id="Line" stroke-linecap="square"></path>
                <path d="M65.5,54.5 L65.5,46.2537887" id="Line-Copy" stroke-linecap="square"></path>
                <path d="M25.5,80.5 L81.5,80.5 L81.5,86 C81.5,89.0344959 79.0351279,91.5 76.0077343,91.5 L30.9922657,91.5 C27.9615266,91.5 25.5,89.0333831 25.5,86 L25.5,80.5 Z" id="Rectangle-3"></path>
            </g>
        </g>
    </g>
</svg>