<?xml version="1.0" encoding="UTF-8"?>
<svg width="107px" height="107px" viewBox="0 0 107 107" version="1.1" xmlns="http://www.w3.org/2000/svg" xmlns:xlink="http://www.w3.org/1999/xlink">
    <!-- Generator: Sketch 43.2 (39069) - http://www.bohemiancoding.com/sketch -->
    <title>Group</title>
    <desc>Created with Sketch.</desc>
    <defs></defs>
    <g id="Page-1" stroke="none" stroke-width="1" fill="none" fill-rule="evenodd">
        <g id="Wireframe-01" transform="translate(-943.000000, -414.000000)" stroke="#000000">
            <g id="Group-+-Bonhomme-+-Bonhomme-+-Bonhomme-Copy-+-Bonhomme-Copy-2-+-Bonhomme-Copy-3-+-Combined-Shape-+-Combined-Shape-Copy-+-Rectangle-6-+-Rectangle-6-Copy-+-Rectangle-6-Copy-2-+-Ouin,-je-vais-pas-tr-+-Ha-ha!-+-Euh…-qu’est-ce-que-t-+-Line-+-Line-Copy-3-+-Line-Copy-2-+-Line-Copy-4-+-Rectangle-7-+-Line-Mask" transform="translate(484.000000, 363.000000)">
                <g id="Group" transform="translate(459.000000, 51.000000)">
                    <path d="M0.5,9.99420077 C0.5,4.75204051 4.75315772,0.5 9.99420077,0.5 L97.0057992,0.5 C102.247959,0.5 106.5,4.75315772 106.5,9.99420077 L106.5,89.0001067 C106.5,98.6631145 98.661466,106.5 89.0001067,106.5 L17.9998933,106.5 C8.33688548,106.5 0.5,98.661466 0.5,89.0001067 L0.5,9.99420077 Z" id="Rectangle"></path>
                    <path d="M9.5,33.5 L48.5,33.5 L48.5,57.9905637 C48.5,62.1366772 45.1401544,65.5 41.0015401,65.5 L16.9984599,65.5 C12.8547401,65.5 9.5,62.1427697 9.5,57.9905637 L9.5,33.5 Z" id="Rectangle-Copy"></path>
                    <path d="M57.5,33.5 L96.5,33.5 L96.5,57.9905637 C96.5,62.1366772 93.1401544,65.5 89.0015401,65.5 L64.9984599,65.5 C60.8547401,65.5 57.5,62.1427697 57.5,57.9905637 L57.5,33.5 Z" id="Rectangle-Copy-2"></path>
                    <rect id="Rectangle-2" x="9.5" y="33.5" width="87" height="6"></rect>
                    <path d="M39.5,54.5 L39.5,46.2537887" id="Line" stroke-linecap="square"></path>
                    <path d="M65.5,54.5 L65.5,46.2537887" id="Line-Copy" stroke-linecap="square"></path>
                    <path d="M25.5,80.5 L81.5,80.5 L81.5,86 C81.5,89.0344959 79.0351279,91.5 76.0077343,91.5 L30.9922657,91.5 C27.9615266,91.5 25.5,89.0333831 25.5,86 L25.5,80.5 Z" id="Rectangle-3"></path>
                </g>
            </g>
        </g>
    </g>
</svg>